Format : Matroska
     File size : 2.50 GiB
     Duration : 2h 11mn
     Overall bit rate : 2 726 Kbps
     Encoded date : UTC 2010-04-01 00:38:17
     Writing application : mkvmerge v3.2.0 ('Beginnings') ±àÒëÓÚ Feb 12 2010     16:46:17
     Writing library : libebml v0.7.9 + libmatroska v0.8.1
 
 Video #1
     ID : 1
     Format : AVC
     Format/Info : Advanced Video Codec
     Format profile : High@L3.1
     Format settings, CABAC : Yes
     Format settings, ReFrames : 3 frames
     Muxing mode : Container profile=Unknown@3.1
     Codec ID : V_MPEG4/ISO/AVC
     Duration : 2h 11mn
     Bit rate : 2 288 Kbps
     Nominal bit rate : 2 340 Kbps
     Width : 1 280 pixels
     Height : 720 pixels
     Display aspect ratio : 16:9
     Frame rate : 23.976 fps
     Resolution : 24 bits
     Colorimetry : 4:2:0
     Scan type : Progressive
     Bits/(Pixel*Frame) : 0.104
     Stream size : 2.09 GiB (84%)
     Writing library : x264 core 80 r1376M 3feaec2
     
  Audio #2
     ID : 2
     Format : AC-3
     Format/Info : Audio Coding 3
     Codec ID : A_AC3
     Duration : 2h 11mn
     Bit rate mode : Constant
     Bit rate : 384 Kbps
     Channel(s) : 2 channels
     Channel positions : L R
     Sampling rate : 48.0 KHz
     Stream size : 360 MiB (14%)